<svg xmlns="http://www.w3.org/2000/svg" version="1.1" xmlns:xlink="http://www.w3.org/1999/xlink" xmlns:svgjs="http://svgjs.dev/svgjs" viewBox="0 0 800 800"><defs><linearGradient x1="50%" y1="0%" x2="50%" y2="100%" id="ffflurry-grad" gradientTransform="rotate(270)"><stop stop-color="hsl(238, 82%, 13%)" stop-opacity="1" offset="0%"></stop><stop stop-color="hsl(1.4, 100%, 67%)" stop-opacity="1" offset="45%"></stop><stop stop-color="hsl(167, 52%, 78%)" stop-opacity="1" offset="100%"></stop></linearGradient></defs><rect width="100%" height="100%" fill="hsl(238, 82%, 13%)"></rect><g fill="url(#ffflurry-grad)"><rect width="453" height="3" x="426.5" y="328.5" rx="1.5" transform="rotate(45, 653, 330)" opacity="0.92"></rect><rect width="433" height="3" x="-57.5" y="465.5" rx="1.5" transform="rotate(45, 159, 467)" opacity="0.28"></rect><rect width="94" height="3" x="265" y="491.5" rx="1.5" transform="rotate(45, 312, 493)" opacity="0.93"></rect><rect width="490" height="3" x="8" y="368.5" rx="1.5" transform="rotate(45, 253, 370)" opacity="0.87"></rect><rect width="303" height="3" x="311.5" y="380.5" rx="1.5" transform="rotate(45, 463, 382)" opacity="0.81"></rect><rect width="193" height="3" x="636.5" y="171.5" rx="1.5" transform="rotate(45, 733, 173)" opacity="0.29"></rect><rect width="249" height="3" x="-93.5" y="583.5" rx="1.5" transform="rotate(45, 31, 585)" opacity="0.31"></rect><rect width="881" height="3" x="-136.5" y="60.5" rx="1.5" transform="rotate(45, 304, 62)" opacity="0.92"></rect><rect width="124" height="3" x="516" y="494.5" rx="1.5" transform="rotate(45, 578, 496)" opacity="0.16"></rect><rect width="433" height="3" x="329.5" y="364.5" rx="1.5" transform="rotate(45, 546, 366)" opacity="0.87"></rect><rect width="508" height="3" x="277" y="179.5" rx="1.5" transform="rotate(45, 531, 181)" opacity="0.48"></rect><rect width="93" height="3" x="454.5" y="512.5" rx="1.5" transform="rotate(45, 501, 514)" opacity="0.17"></rect><rect width="639" height="3" x="102.5" y="50.5" rx="1.5" transform="rotate(45, 422, 52)" opacity="0.86"></rect><rect width="167" height="3" x="299.5" y="758.5" rx="1.5" transform="rotate(45, 383, 760)" opacity="0.49"></rect><rect width="92" height="3" x="-16" y="714.5" rx="1.5" transform="rotate(45, 30, 716)" opacity="0.28"></rect><rect width="175" height="3" x="690.5" y="379.5" rx="1.5" transform="rotate(45, 778, 381)" opacity="0.86"></rect><rect width="495" height="3" x="6.5" y="191.5" rx="1.5" transform="rotate(45, 254, 193)" opacity="0.22"></rect><rect width="536" height="3" x="-155" y="401.5" rx="1.5" transform="rotate(45, 113, 403)" opacity="0.17"></rect><rect width="310" height="3" x="609" y="101.5" rx="1.5" transform="rotate(45, 764, 103)" opacity="0.95"></rect><rect width="249" height="3" x="78.5" y="549.5" rx="1.5" transform="rotate(45, 203, 551)" opacity="0.60"></rect><rect width="303" height="3" x="33.5" y="51.5" rx="1.5" transform="rotate(45, 185, 53)" opacity="0.77"></rect><rect width="172" height="3" x="635" y="497.5" rx="1.5" transform="rotate(45, 721, 499)" opacity="0.56"></rect><rect width="83" height="3" x="328.5" y="690.5" rx="1.5" transform="rotate(45, 370, 692)" opacity="0.83"></rect><rect width="684" height="3" x="153" y="259.5" rx="1.5" transform="rotate(45, 495, 261)" opacity="0.98"></rect><rect width="167" height="3" x="-48.5" y="294.5" rx="1.5" transform="rotate(45, 35, 296)" opacity="0.52"></rect><rect width="202" height="3" x="652" y="445.5" rx="1.5" transform="rotate(45, 753, 447)" opacity="0.98"></rect><rect width="133" height="3" x="677.5" y="264.5" rx="1.5" transform="rotate(45, 744, 266)" opacity="0.08"></rect><rect width="170" height="3" x="423" y="42.5" rx="1.5" transform="rotate(45, 508, 44)" opacity="0.18"></rect><rect width="697" height="3" x="46.5" y="299.5" rx="1.5" transform="rotate(45, 395, 301)" opacity="0.35"></rect><rect width="279" height="3" x="223.5" y="582.5" rx="1.5" transform="rotate(45, 363, 584)" opacity="0.48"></rect><rect width="473" height="3" x="439.5" y="680.5" rx="1.5" transform="rotate(45, 676, 682)" opacity="0.75"></rect><rect width="284" height="3" x="571" y="369.5" rx="1.5" transform="rotate(45, 713, 371)" opacity="0.88"></rect><rect width="278" height="3" x="352" y="758.5" rx="1.5" transform="rotate(45, 491, 760)" opacity="0.81"></rect><rect width="452" height="3" x="532" y="751.5" rx="1.5" transform="rotate(45, 758, 753)" opacity="0.66"></rect><rect width="297" height="3" x="441.5" y="36.5" rx="1.5" transform="rotate(45, 590, 38)" opacity="0.95"></rect><rect width="537" height="3" x="324.5" y="279.5" rx="1.5" transform="rotate(45, 593, 281)" opacity="0.81"></rect><rect width="529" height="3" x="-170.5" y="750.5" rx="1.5" transform="rotate(45, 94, 752)" opacity="0.30"></rect><rect width="66" height="3" x="645" y="763.5" rx="1.5" transform="rotate(45, 678, 765)" opacity="0.25"></rect><rect width="126" height="3" x="47" y="651.5" rx="1.5" transform="rotate(45, 110, 653)" opacity="0.61"></rect><rect width="105" height="3" x="258.5" y="656.5" rx="1.5" transform="rotate(45, 311, 658)" opacity="0.17"></rect><rect width="396" height="3" x="553" y="570.5" rx="1.5" transform="rotate(45, 751, 572)" opacity="0.65"></rect><rect width="233" height="3" x="105.5" y="645.5" rx="1.5" transform="rotate(45, 222, 647)" opacity="0.99"></rect><rect width="130" height="3" x="571" y="439.5" rx="1.5" transform="rotate(45, 636, 441)" opacity="0.78"></rect><rect width="347" height="3" x="64.5" y="290.5" rx="1.5" transform="rotate(45, 238, 292)" opacity="0.29"></rect><rect width="274" height="3" x="269" y="629.5" rx="1.5" transform="rotate(45, 406, 631)" opacity="0.94"></rect><rect width="410" height="3" x="-49" y="147.5" rx="1.5" transform="rotate(45, 156, 149)" opacity="0.12"></rect><rect width="168" height="3" x="460" y="695.5" rx="1.5" transform="rotate(45, 544, 697)" opacity="0.78"></rect><rect width="466" height="3" x="215" y="453.5" rx="1.5" transform="rotate(45, 448, 455)" opacity="0.73"></rect><rect width="211" height="3" x="555.5" y="79.5" rx="1.5" transform="rotate(45, 661, 81)" opacity="0.57"></rect><rect width="183" height="3" x="522.5" y="691.5" rx="1.5" transform="rotate(45, 614, 693)" opacity="0.63"></rect><rect width="57" height="3" x="624.5" y="579.5" rx="1.5" transform="rotate(45, 653, 581)" opacity="0.91"></rect><rect width="102" height="3" x="-15" y="437.5" rx="1.5" transform="rotate(45, 36, 439)" opacity="0.66"></rect><rect width="638" height="3" x="-211" y="225.5" rx="1.5" transform="rotate(45, 108, 227)" opacity="0.63"></rect><rect width="247" height="3" x="53.5" y="748.5" rx="1.5" transform="rotate(45, 177, 750)" opacity="0.16"></rect><rect width="203" height="3" x="202.5" y="586.5" rx="1.5" transform="rotate(45, 304, 588)" opacity="0.44"></rect><rect width="121" height="3" x="206.5" y="743.5" rx="1.5" transform="rotate(45, 267, 745)" opacity="0.98"></rect><rect width="698" height="3" x="0" y="398.5" rx="1.5" transform="rotate(45, 349, 400)" opacity="0.25"></rect><rect width="545" height="3" x="70.5" y="221.5" rx="1.5" transform="rotate(45, 343, 223)" opacity="0.26"></rect><rect width="263" height="3" x="498.5" y="199.5" rx="1.5" transform="rotate(45, 630, 201)" opacity="0.75"></rect><rect width="414" height="3" x="380" y="623.5" rx="1.5" transform="rotate(45, 587, 625)" opacity="0.43"></rect><rect width="229" height="3" x="322.5" y="550.5" rx="1.5" transform="rotate(45, 437, 552)" opacity="0.87"></rect><rect width="41" height="3" x="513.5" y="589.5" rx="1.5" transform="rotate(45, 534, 591)" opacity="0.37"></rect><rect width="129" height="3" x="13.5" y="520.5" rx="1.5" transform="rotate(45, 78, 522)" opacity="0.46"></rect><rect width="450" height="3" x="513" y="31.5" rx="1.5" transform="rotate(45, 738, 33)" opacity="0.58"></rect><rect width="190" height="3" x="659" y="660.5" rx="1.5" transform="rotate(45, 754, 662)" opacity="0.65"></rect><rect width="256" height="3" x="339" y="598.5" rx="1.5" transform="rotate(45, 467, 600)" opacity="0.51"></rect><rect width="403" height="3" x="-66.5" y="325.5" rx="1.5" transform="rotate(45, 135, 327)" opacity="0.97"></rect><rect width="76" height="3" x="225" y="548.5" rx="1.5" transform="rotate(45, 263, 550)" opacity="0.60"></rect><rect width="301" height="3" x="89.5" y="452.5" rx="1.5" transform="rotate(45, 240, 454)" opacity="0.50"></rect><rect width="306" height="3" x="317" y="671.5" rx="1.5" transform="rotate(45, 470, 673)" opacity="0.74"></rect><rect width="292" height="3" x="428" y="119.5" rx="1.5" transform="rotate(45, 574, 121)" opacity="0.39"></rect><rect width="102" height="3" x="333" y="509.5" rx="1.5" transform="rotate(45, 384, 511)" opacity="0.88"></rect><rect width="333" height="3" x="295.5" y="157.5" rx="1.5" transform="rotate(45, 462, 159)" opacity="0.38"></rect><rect width="299" height="3" x="231.5" y="141.5" rx="1.5" transform="rotate(45, 381, 143)" opacity="0.94"></rect><rect width="195" height="3" x="495.5" y="764.5" rx="1.5" transform="rotate(45, 593, 766)" opacity="0.66"></rect><rect width="260" height="3" x="10" y="577.5" rx="1.5" transform="rotate(45, 140, 579)" opacity="0.67"></rect><rect width="262" height="3" x="-79" y="84.5" rx="1.5" transform="rotate(45, 52, 86)" opacity="0.44"></rect></g></svg>